<?xml version="1.0" encoding="UTF-8"?>
<svg width="190px" height="25px" viewBox="0 0 190 25" version="1.1" xmlns="http://www.w3.org/2000/svg" xmlns:xlink="http://www.w3.org/1999/xlink">
    <!-- Generator: Sketch 51.3 (57544) - http://www.bohemiancoding.com/sketch -->
    <title>logo_horse21--normal</title>
    <desc>Created with Sketch.</desc>
    <defs></defs>
    <g id="Page-1" stroke="none" stroke-width="1" fill="none" fill-rule="evenodd">
        <g id="1-Login-page" transform="translate(-1145.000000, -264.000000)">
            <rect fill="#FFFFFF" x="0" y="0" width="1440" height="760"></rect>
            <g id="logo_horse21--normal" transform="translate(1145.000000, 264.000000)" fill-rule="nonzero">
                <g id="h21-logothype-black">
                    <g id="Letter-1">
                        <circle id="Oval" fill="#24BCFF" cx="12.1563981" cy="12.1563981" r="12.1563981"></circle>
                        <path d="M17.5282866,12.554559 L17.5282866,17.6783765 L13.9065369,17.6783765 L13.9065369,11.1683325 L15.5454904,9.145113 C15.5893819,9.17000345 15.6401284,9.18421524 15.6941954,9.18421524 C15.7316392,9.18421524 15.7674905,9.17739898 15.8005753,9.16494003 L17.5282866,12.554559 Z M17.5282866,12.2478376 L15.9168025,9.08624626 C15.9547691,9.04481499 15.9813133,8.9927514 15.9914494,8.9350395 L17.5282866,9.31807985 L17.5282866,12.2478376 Z M15.2190749,6.97336327 L15.5398788,8.62316965 C15.4798751,8.65892547 15.4333284,8.7148999 15.4096461,8.78168876 L13.9065369,9.15632276 L13.9065369,8.11664305 L13.2100465,8.11664305 L13.2100465,7.51323269 L15.2190749,6.97336327 Z M15.3539335,6.93712387 L17.5282866,6.35282813 L17.5282866,6.45243134 L15.836869,8.61657737 C15.7943857,8.59375323 15.7458032,8.58080487 15.6941954,8.58080487 C15.6873003,8.58080487 15.6804594,8.581036 15.6736798,8.58149094 L15.3539335,6.93712387 Z M13.9065369,10.9470644 L13.9065369,9.29983422 L15.3958868,8.92862955 C15.4027046,8.97306065 15.4192186,9.01429842 15.4432014,9.05011641 L13.9065369,10.9470644 Z M17.5282866,9.17456839 L15.9812248,8.78897967 C15.9718609,8.76024486 15.9582992,8.73340488 15.9412634,8.70918334 L17.5282866,6.67860848 L17.5282866,9.17456839 Z" id="Combined-Shape" fill="#FFFFFF"></path>
                    </g>
                    <g id="Letter-2" transform="translate(5.552923, 6.603476)" fill="#FFFFFF">
                        <path d="M5.62463006,4.43352089 C5.51853531,4.44962469 5.43055251,4.52006566 5.39066373,4.6152016 L4.82954026,4.53723482 C4.90063332,4.18798961 4.76410549,3.41915953 4.39412647,3.85357934 L2.98655852,3.31938966 C2.98699597,3.31279936 2.98721815,3.30615095 2.98721815,3.29945123 C2.98721815,3.22162762 2.95724028,3.15072634 2.90807839,3.09741892 L3.37267225,2.30184086 C3.39143373,2.30542919 3.41081155,2.30730855 3.43063335,2.30730855 C3.59606248,2.30730855 3.73056711,2.176406 3.73395717,2.01365521 L5.43513982,1.562992 C5.47439885,1.66204817 5.56540459,1.73543455 5.67527519,1.75064204 L5.62463006,4.43352089 Z M5.7614885,4.4435862 L5.80922668,1.73967084 C5.9320631,1.70130075 6.02111157,1.58773389 6.02111157,1.45360439 C6.02111157,1.43832849 6.01995656,1.4233193 6.01772815,1.40865754 L6.85285117,1.18742366 C7.04825295,1.39276018 7.26611497,1.66000168 7.46804536,1.98428535 C7.46804536,1.98428535 7.04796782,2.16887005 7.04796782,2.16887005 C7.04796782,2.16887005 7.25070598,2.27731804 7.65618234,2.49421407 L7.7014218,4.79920181 L7.4213701,4.4761786 L7.3280195,4.84534796 L7.33816745,4.8858027 L5.97251628,4.69604864 C5.95891231,4.57659944 5.87435,4.47838676 5.7614885,4.4435862 Z M5.57926692,6.83659229 L4.40622077,7.83433078 C4.35808984,7.73155747 4.25284738,7.66026443 4.13076261,7.66026443 C4.05121895,7.66026443 3.978825,7.69052903 3.92471876,7.7400466 L2.51264254,6.29437494 C3.34428294,5.7084434 4.52087121,5.24925814 4.78493803,4.67083647 L5.3684563,4.75191496 C5.37841969,4.88822297 5.48051289,4.99928696 5.61347334,5.02453882 L5.57926692,6.83659229 Z M5.71908636,6.84526572 L5.7513238,5.01932015 C5.84605291,4.99368894 5.92228556,4.92380155 5.955871,4.83353487 L7.37450189,5.03065031 L7.45535097,5.35295585 L5.83441046,7.38338735 L5.71908636,6.84526572 Z M5.69604593,0.73807721 L5.6943846,0.738338735 L5.68651504,1.15522176 C5.543183,1.16970149 5.42938761,1.28282747 5.41571215,1.42481653 L3.7045025,1.87813601 C3.69262272,1.85357027 3.67746106,1.83085255 3.65957867,1.81053764 L4.69188203,0.0428046176 L5.08760591,0.738338735 L5.85458019,0.270996094 L5.69604593,0.73807721 Z M5.82716711,0.723515945 C6.04405388,0.684402473 6.18894039,0.676424882 6.26182661,0.699583164 C6.32420975,0.719404292 6.50897961,0.847323253 6.740768,1.07379372 L5.96471418,1.27937946 C5.92893153,1.22988399 5.87830699,1.19159497 5.81926902,1.17086806 L5.82716711,0.723515945 Z M1.80408701,5.51373039 L1.75959581,5.36033005 C1.85159885,5.30881286 1.91368663,5.21115088 1.91368663,5.09915191 C1.91368663,5.02869928 1.88911848,4.96391978 1.84799035,4.91273087 L2.61894984,3.59252734 C2.63985292,3.59702948 2.6615607,3.59940135 2.68382881,3.59940135 C2.79506624,3.59940135 2.89232133,3.54021437 2.94513321,3.45195594 L4.31379078,3.97137866 C4.04497934,4.4363224 3.61948861,4.53256251 2.75384174,4.66076329 C2.38935297,5.05672632 2.05208431,5.37440639 1.80408683,5.51373048 L1.80408701,5.51373039 Z M1.67540697,5.57230568 C1.6610148,5.57701187 1.64708437,5.5808159 1.63363492,5.58368671 C1.63363492,6.15192903 1.34214231,6.49227959 1.07353152,6.27587927 C1.06930579,6.27102975 1.06495423,6.26616388 1.06047686,6.26128175 L1.56583202,5.39590336 C1.58034511,5.39801067 1.59519229,5.39910203 1.61029729,5.39910203 C1.61525042,5.39910203 1.62017582,5.39898467 1.62507083,5.39875263 L1.67540697,5.57230568 Z M1.06471374,2.96445938 L1.19263623,2.78686136 L2.38641544,3.23991555 C2.38249612,3.25915802 2.38043946,3.27906717 2.38043946,3.29945123 C2.38043946,3.39338247 2.42411096,3.47722931 2.49247499,3.53222791 L1.73671579,4.82640223 C1.69823142,4.80893841 1.65541444,4.79920181 1.61029729,4.79920181 C1.60581916,4.79920181 1.60136369,4.79929772 1.59693288,4.7994876 L1.06471374,2.96445938 Z M0.965389727,3.12425071 L1.4622278,4.83728929 C1.36954909,4.88862274 1.30690794,4.98665494 1.30690794,5.09915191 C1.30690794,5.20007611 1.35732399,5.28935851 1.43461486,5.34372474 L0.894955393,6.26784635 L0.840155105,6.32202545 C0.71591787,6.32202545 0.640822628,6.32202545 0.614869372,6.32202545 C0.614869372,6.32202545 0.0133097488,5.72431085 0.0133097488,5.72431085 C0.0133097488,5.72431085 0.0133097488,4.80900334 0.0133097488,4.80900334 C0.135300009,4.5975852 0.452660001,4.036001 0.965389727,3.12425071 Z M1.27651708,2.67040748 L1.28163328,2.66330453 L3.17108826,2.16276578 C3.19038044,2.1941918 3.21534725,2.22183503 3.24458309,2.2443058 L2.79209043,3.01916156 C2.75846556,3.00645924 2.72196909,2.99950112 2.68382881,2.99950112 C2.5870834,2.99950112 2.50091443,3.0442709 2.44536107,3.11399843 L1.27651708,2.67040748 Z M2.39507449,6.37329986 L3.82889117,7.84122921 C3.71364366,7.87669906 3.62555024,7.94039996 3.56461089,8.03233193 L0.494685519,8.03233193 C0.606240672,7.73833829 1.07929837,7.23418763 2.39507449,6.37329986 Z M0.466752837,8.17077045 L3.91468661,8.17077045 C3.91980198,8.17590111 3.9251029,8.18085046 3.93057861,8.1856079 L0.796469621,11.0750811 L0.466752837,11.0750811 C0.466752837,9.20881841 0.466752837,8.24071488 0.466752837,8.17077045 Z M5.73570906,8.16787229 L7.79992306,8.16787229 L7.79992306,11.0750811 L7.49642216,11.0750811 L4.34654192,8.17106766 C4.34664085,8.17096865 4.34673975,8.17086957 4.34683858,8.17077045 L5.73570906,8.17077045 L5.73570906,8.16787229 Z M4.53495689,0.034648757 L3.54519678,1.72953002 C3.50984843,1.71526801 3.47116928,1.70740833 3.43063335,1.70740833 C3.26307604,1.70740833 3.12724401,1.84170057 3.12724401,2.00735845 C3.12724401,2.01525269 3.12755247,2.02307573 3.12815812,2.03081638 L1.35449486,2.50068056 L1.35449486,1.6665122 L2.52869274,0.0413918537 L2.52869274,0.559004082 L4.53495689,0.034648757 Z M1.00178661,11.0750811 L4.06313829,8.25268605 C4.08488388,8.25758015 4.10751797,8.26016461 4.13076261,8.26016461 C4.16280068,8.26016461 4.19367887,8.25525488 4.22266944,8.24615499 L7.29110513,11.0750811 L1.00178661,11.0750811 Z" id="Combined-Shape"></path>
                    </g>
                </g>
                <path d="M45.8745808,4.23839974 L45.8745808,21.2003424 L41.9164061,21.2003424 L41.9164061,14.0290613 L35.0245254,14.0290613 L35.0245254,21.2003424 L31.0663507,21.2003424 L31.0663507,4.23839974 L35.0245254,4.23839974 L35.0245254,11.3281891 L41.9164061,11.3281891 L41.9164061,4.23839974 L45.8745808,4.23839974 Z M65.9345066,12.7135503 C65.9345066,13.9398144 65.7230181,15.0806887 65.3000344,16.1362071 C64.8770509,17.1917257 64.2813904,18.1094698 63.5130351,18.889467 C62.7446797,19.6694641 61.8191746,20.2806467 60.736492,20.7230332 C59.6538092,21.1654196 58.452787,21.3866095 57.1333887,21.3866095 C55.8139906,21.3866095 54.6110279,21.1654196 53.5244648,20.7230332 C52.4379016,20.2806467 51.508516,19.6694641 50.7362799,18.889467 C49.964044,18.1094698 49.3664432,17.1917257 48.9434597,16.1362071 C48.5204762,15.0806887 48.3089876,13.9398144 48.3089876,12.7135503 C48.3089876,11.4872861 48.5204762,10.3464119 48.9434597,9.29089332 C49.3664432,8.2353748 49.964044,7.31957099 50.7362799,6.54345442 C51.508516,5.76733786 52.4379016,5.15809549 53.5244648,4.71570905 C54.6110279,4.27332261 55.8139906,4.0521327 57.1333887,4.0521327 C58.452787,4.0521327 59.6538092,4.27526286 60.736492,4.7215299 C61.8191746,5.16779691 62.7446797,5.77897955 63.5130351,6.55509611 C64.2813904,7.33121267 64.8770509,8.24701648 65.3000344,9.30253503 C65.7230181,10.3580536 65.9345066,11.4950473 65.9345066,12.7135503 Z M61.9064818,12.7135503 C61.9064818,11.8753444 61.7978272,11.1205823 61.5805144,10.4492415 C61.3632019,9.77790068 61.0508197,9.20940382 60.6433584,8.74373389 C60.2358972,8.27806394 59.7372499,7.92105568 59.1474012,7.67269838 C58.5575526,7.42434108 57.8862218,7.30016429 57.1333887,7.30016429 C56.3727945,7.30016429 55.6956429,7.42434108 55.1019138,7.67269838 C54.5081847,7.92105568 54.007597,8.27806394 53.6001358,8.74373389 C53.1926746,9.20940382 52.8802923,9.77790068 52.6629797,10.4492415 C52.4456671,11.1205823 52.3370123,11.8753444 52.3370123,12.7135503 C52.3370123,13.5595173 52.4456671,14.3181599 52.6629797,14.9895007 C52.8802923,15.6608415 53.1926746,16.2293384 53.6001358,16.6950084 C54.007597,17.1606783 54.5081847,17.5157463 55.1019138,17.760223 C55.6956429,18.0046997 56.3727945,18.1269362 57.1333887,18.1269362 C57.8862218,18.1269362 58.5575526,18.0046997 59.1474012,17.760223 C59.7372499,17.5157463 60.2358972,17.1606783 60.6433584,16.6950084 C61.0508197,16.2293384 61.3632019,15.6608415 61.5805144,14.9895007 C61.7978272,14.3181599 61.9064818,13.5595173 61.9064818,12.7135503 Z M73.8987163,12.2129576 C74.4342367,12.2129576 74.8901984,12.1450484 75.2666149,12.009228 C75.6430314,11.8734076 75.9515332,11.6852022 76.1921293,11.444606 C76.4327255,11.2040099 76.6073491,10.9226719 76.7160054,10.6005835 C76.8246617,10.2784951 76.8789891,9.93118816 76.8789891,9.5586522 C76.8789891,8.81358031 76.6364562,8.2315016 76.1513833,7.81239866 C75.6663105,7.39329571 74.915429,7.18374738 73.8987163,7.18374738 L72.3154465,7.18374738 L72.3154465,12.2129576 L73.8987163,12.2129576 Z M82.2574499,21.2003424 L78.6950927,21.2003424 C78.0353936,21.2003424 77.5619696,20.9519889 77.2748065,20.4552744 L74.4575174,15.5308394 C74.3255776,15.3212878 74.1781178,15.1680071 74.0151332,15.0709926 C73.8521488,14.973978 73.6193173,14.9254714 73.3166318,14.9254714 L72.3154465,14.9254714 L72.3154465,21.2003424 L68.3805552,21.2003424 L68.3805552,4.23839974 L73.8987163,4.23839974 C75.1249805,4.23839974 76.1707819,4.36451679 77.0361518,4.61675468 C77.9015218,4.86899256 78.6077773,5.22018005 79.1549395,5.67032766 C79.7021017,6.12047525 80.0998554,6.65210714 80.3482127,7.26523923 C80.59657,7.87837131 80.7207468,8.54582155 80.7207468,9.26760995 C80.7207468,9.81865271 80.6470168,10.338643 80.4995546,10.8275964 C80.3520926,11.3165499 80.1347832,11.768631 79.8476201,12.1838534 C79.560457,12.5990757 79.2053888,12.9696658 78.7824053,13.2956348 C78.3594218,13.6216037 77.8724161,13.8893599 77.3213733,14.0989114 C77.5774917,14.2308512 77.8180842,14.3957735 78.0431581,14.5936833 C78.2682319,14.791593 78.4700191,15.0263648 78.648526,15.2980055 L82.2574499,21.2003424 Z M93.1902907,7.68434007 C93.0738732,7.87060804 92.9516366,8.01030694 92.8235773,8.10344091 C92.6955182,8.19657491 92.5305958,8.24314121 92.3288056,8.24314121 C92.1502988,8.24314121 91.9582127,8.18687359 91.7525419,8.0743367 C91.546871,7.96179979 91.3140395,7.83568274 91.0540405,7.69598176 C90.7940414,7.55628077 90.4971813,7.43016373 90.1634511,7.31762683 C89.8297211,7.20508992 89.4494296,7.14882232 89.0225655,7.14882232 C88.2852547,7.14882232 87.7361606,7.30598357 87.3752664,7.62031077 C87.0143722,7.93463798 86.8339277,8.35955544 86.8339277,8.89507585 C86.8339277,9.23656715 86.9425824,9.51984544 87.1598951,9.74491924 C87.3772077,9.96999305 87.6624263,10.1640193 88.0155593,10.3270038 C88.3686923,10.4899882 88.7722669,10.6393884 89.2262952,10.7752088 C89.6803233,10.9110292 90.144046,11.0623697 90.6174771,11.2292348 C91.0909082,11.3960998 91.5546309,11.5920663 92.0086591,11.8171401 C92.4626873,12.0422139 92.8662619,12.3293728 93.2193949,12.6786252 C93.5725279,13.0278777 93.8577464,13.4527951 94.0750591,13.9533903 C94.2923717,14.4539855 94.4010264,15.0574071 94.4010264,15.7636731 C94.4010264,16.5475508 94.265208,17.28097 93.9935673,17.9639527 C93.7219264,18.6469351 93.3280533,19.2425956 92.8119357,19.750952 C92.2958182,20.2593084 91.6594122,20.6590024 90.9026985,20.9500461 C90.1459849,21.2410899 89.2864486,21.3866095 88.3240641,21.3866095 C87.7963049,21.3866095 87.2588522,21.3322821 86.71169,21.2236258 C86.1645279,21.1149695 85.6348362,20.9616888 85.1225992,20.7637792 C84.6103624,20.5658694 84.1291773,20.3310977 83.6790296,20.0594568 C83.2288821,19.7878161 82.836949,19.4851351 82.503219,19.1514049 L83.667388,17.3120179 C83.7605219,17.1800781 83.8827584,17.0694832 84.0341012,16.9802298 C84.185444,16.8909763 84.3503663,16.8463503 84.5288731,16.8463503 C84.761708,16.8463503 84.9964797,16.9200804 85.2331953,17.0675424 C85.4699108,17.2150046 85.737667,17.3779867 86.0364719,17.5564935 C86.3352768,17.7350003 86.6787033,17.8979823 87.0667616,18.0454444 C87.4548198,18.1929066 87.9127218,18.2666365 88.440481,18.2666365 C89.1545082,18.2666365 89.7094233,18.1094753 90.1052427,17.795148 C90.5010622,17.4808209 90.6989689,16.9821734 90.6989689,16.2991908 C90.6989689,15.9033714 90.5903142,15.5812878 90.3730016,15.3329305 C90.155689,15.0845733 89.8704703,14.8789055 89.5173373,14.715921 C89.1642043,14.5529365 88.76257,14.4093571 88.3124225,14.2851785 C87.8622748,14.1609998 87.4004924,14.0232412 86.9270612,13.8718985 C86.4536301,13.7205557 85.9918477,13.5342905 85.5417,13.3130973 C85.0915525,13.0919041 84.6899182,12.8008647 84.3367852,12.4399706 C83.9836522,12.0790763 83.6984335,11.6289355 83.4811209,11.0895345 C83.2638084,10.5501335 83.1551536,9.8846235 83.1551536,9.0929846 C83.1551536,8.45656902 83.2832109,7.83568506 83.5393294,7.23031415 C83.7954479,6.62494323 84.1718587,6.08555031 84.6685734,5.61211919 C85.165288,5.13868809 85.7745303,4.76033695 86.4963187,4.47705439 C87.2181071,4.19377185 88.0446589,4.0521327 88.9759988,4.0521327 C89.4959969,4.0521327 90.0024054,4.09287822 90.4952393,4.17437045 C90.9880733,4.25586269 91.4556765,4.37615896 91.898063,4.53526286 C92.3404495,4.69436674 92.7537253,4.88451245 93.137903,5.10570568 C93.5220808,5.32689889 93.8655071,5.57719273 94.1681926,5.8565947 L93.1902907,7.68434007 Z M100.80525,7.26523923 L100.80525,11.2234139 L106.137144,11.2234139 L106.137144,14.1338365 L100.80525,14.1338365 L100.80525,18.173503 L107.76698,18.173503 L107.76698,21.2003424 L96.8470749,21.2003424 L96.8470749,4.23839974 L107.76698,4.23839974 L107.76698,7.26523923 L100.80525,7.26523923 Z M120.038615,17.9406693 C120.426674,17.9406693 120.733235,18.0473837 120.958309,18.2608157 C121.183383,18.4742478 121.295918,18.7555857 121.295918,19.1048383 L121.295918,21.2003424 L109.374827,21.2003424 L109.374827,20.0361734 C109.374827,19.8110996 109.421394,19.5705071 109.514527,19.3143886 C109.607661,19.0582703 109.770644,18.8254388 110.003478,18.6158872 L114.892988,13.6914523 C115.312091,13.2723493 115.676861,12.8726553 115.987307,12.4923582 C116.297754,12.112061 116.553868,11.7375904 116.755659,11.368935 C116.957449,11.0002797 117.10879,10.6316298 117.209685,10.2629745 C117.31058,9.8943191 117.361027,9.50432637 117.361027,9.0929846 C117.361027,8.41776318 117.199985,7.89971314 116.877897,7.53881893 C116.555808,7.17792474 116.064922,6.99748034 115.405223,6.99748034 C114.869702,6.99748034 114.417621,7.13911949 114.048966,7.42240203 C113.68031,7.70568459 113.426136,8.05687206 113.286435,8.47597501 C113.123451,8.90283912 112.910022,9.18611742 112.646142,9.3258184 C112.382263,9.46551938 112.005852,9.49656358 111.516898,9.41895193 L109.607661,9.08134291 C109.73184,8.23537585 109.970492,7.49807617 110.323625,6.86942176 C110.676758,6.24076733 111.115257,5.71689651 111.639136,5.29779356 C112.163015,4.87869062 112.762556,4.56630839 113.437777,4.36063749 C114.112999,4.1549666 114.838657,4.0521327 115.614773,4.0521327 C116.452979,4.0521327 117.207741,4.17436923 117.879082,4.41884594 C118.550423,4.66332266 119.1228,5.00286857 119.596231,5.43749384 C120.069662,5.87211912 120.432491,6.39016916 120.684729,6.9916595 C120.936967,7.59314984 121.063084,8.25477929 121.063084,8.97656769 C121.063084,9.59746095 120.975772,10.1717786 120.801146,10.6995379 C120.62652,11.2272971 120.387868,11.7298251 120.085182,12.2071367 C119.782497,12.6844484 119.431309,13.1462309 119.031609,13.5924979 C118.631909,14.0387649 118.206992,14.490846 117.756844,14.9487548 L114.438962,18.3481283 C114.865827,18.2161886 115.288804,18.1152949 115.707907,18.0454444 C116.12701,17.975594 116.515062,17.9406693 116.872076,17.9406693 L120.038615,17.9406693 Z M134.545455,18.5926038 L134.545455,21.2003424 L124.882852,21.2003424 L124.882852,18.5926038 L128.142525,18.5926038 L128.142525,10.0359615 C128.142525,9.81864886 128.146406,9.59939922 128.154167,9.37820601 C128.161928,9.15701278 128.17357,8.93388262 128.189092,8.70880881 L126.256572,10.3153621 C126.085826,10.4473019 125.917023,10.5268526 125.750158,10.5540167 C125.583293,10.5811808 125.426132,10.5811808 125.27867,10.5540167 C125.131207,10.5268526 124.99927,10.4764058 124.882852,10.4026748 C124.766435,10.3289437 124.681063,10.2532734 124.626735,10.1756618 L123.485849,8.66224205 L128.771177,4.22675805 L131.751449,4.22675805 L131.751449,18.5926038 L134.545455,18.5926038 Z M136.677178,19.3725971 C136.677178,19.0931952 136.729565,18.8332 136.834341,18.5926038 C136.939116,18.3520077 137.082696,18.1424595 137.265083,17.9639527 C137.447471,17.7854457 137.66284,17.6438066 137.911197,17.5390309 C138.159554,17.4342552 138.431191,17.381868 138.726115,17.381868 C139.013278,17.381868 139.281035,17.4342552 139.529392,17.5390309 C139.777749,17.6438066 139.995059,17.7854457 140.181327,17.9639527 C140.367595,18.1424595 140.513114,18.3520077 140.61789,18.5926038 C140.722666,18.8332 140.775053,19.0931952 140.775053,19.3725971 C140.775053,19.6519991 140.722666,19.9139345 140.61789,20.1584112 C140.513114,20.402888 140.367595,20.6143766 140.181327,20.7928834 C139.995059,20.9713902 139.777749,21.1110891 139.529392,21.2119842 C139.281035,21.3128793 139.013278,21.3633261 138.726115,21.3633261 C138.431191,21.3633261 138.159554,21.3128793 137.911197,21.2119842 C137.66284,21.1110891 137.447471,20.9713902 137.265083,20.7928834 C137.082696,20.6143766 136.939116,20.402888 136.834341,20.1584112 C136.729565,19.9139345 136.677178,19.6519991 136.677178,19.3725971 Z M149.263139,12.5622083 C150.287612,12.5622083 151.024913,12.3177353 151.47506,11.8287818 C151.925208,11.3398284 152.150277,10.656856 152.150277,9.77984432 C152.150277,9.39178604 152.09207,9.0386583 151.975653,8.7204505 C151.859235,8.40224272 151.682671,8.12866573 151.445955,7.89971134 C151.20924,7.67075696 150.91044,7.49419308 150.549545,7.37001442 C150.188652,7.24583578 149.759853,7.18374738 149.263139,7.18374738 L147.214201,7.18374738 L147.214201,12.5622083 L149.263139,12.5622083 Z M149.263139,4.23839974 C150.458359,4.23839974 151.484756,4.38003889 152.342366,4.66332144 C153.199975,4.94660399 153.90623,5.33659671 154.461153,5.83331131 C155.016077,6.33002592 155.425472,6.91598514 155.689351,7.59120654 C155.953231,8.26642796 156.08517,8.99596659 156.08517,9.77984432 C156.08517,10.6258114 155.949351,11.4019163 155.67771,12.1081824 C155.40607,12.8144485 154.990854,13.4198103 154.43205,13.9242861 C153.873245,14.4287618 153.16505,14.8226351 152.307441,15.1059176 C151.449831,15.3892002 150.435075,15.5308394 149.263139,15.5308394 L147.214201,15.5308394 L147.214201,21.2003424 L143.27931,21.2003424 L143.27931,4.23839974 L149.263139,4.23839974 Z M163.735053,12.2129576 C164.270574,12.2129576 164.726535,12.1450484 165.102952,12.009228 C165.479368,11.8734076 165.787871,11.6852022 166.028467,11.444606 C166.269063,11.2040099 166.443686,10.9226719 166.552342,10.6005835 C166.660999,10.2784951 166.715326,9.93118816 166.715326,9.5586522 C166.715326,8.81358031 166.472794,8.2315016 165.98772,7.81239866 C165.502647,7.39329571 164.751766,7.18374738 163.735053,7.18374738 L162.151784,7.18374738 L162.151784,12.2129576 L163.735053,12.2129576 Z M172.093786,21.2003424 L168.53143,21.2003424 C167.871731,21.2003424 167.398307,20.9519889 167.111143,20.4552744 L164.293854,15.5308394 C164.161915,15.3212878 164.014455,15.1680071 163.851471,15.0709926 C163.688486,14.973978 163.455654,14.9254714 163.152968,14.9254714 L162.151784,14.9254714 L162.151784,21.2003424 L158.216892,21.2003424 L158.216892,4.23839974 L163.735053,4.23839974 C164.961317,4.23839974 166.007118,4.36451679 166.872489,4.61675468 C167.737859,4.86899256 168.444114,5.22018005 168.991277,5.67032766 C169.538439,6.12047525 169.936192,6.65210714 170.18455,7.26523923 C170.432907,7.87837131 170.557084,8.54582155 170.557084,9.26760995 C170.557084,9.81865271 170.483353,10.338643 170.335891,10.8275964 C170.18843,11.3165499 169.97112,11.768631 169.683957,12.1838534 C169.396793,12.5990757 169.041726,12.9696658 168.618742,13.2956348 C168.195759,13.6216037 167.708753,13.8893599 167.157711,14.0989114 C167.413828,14.2308512 167.654421,14.3957735 167.879495,14.5936833 C168.104568,14.791593 168.306355,15.0263648 168.484862,15.2980055 L172.093786,21.2003424 Z M190,12.7135503 C190,13.9398144 189.788512,15.0806887 189.365528,16.1362071 C188.942545,17.1917257 188.346884,18.1094698 187.578528,18.889467 C186.810173,19.6694641 185.884668,20.2806467 184.801986,20.7230332 C183.719302,21.1654196 182.51828,21.3866095 181.198882,21.3866095 C179.879483,21.3866095 178.676521,21.1654196 177.589958,20.7230332 C176.503395,20.2806467 175.57401,19.6694641 174.801774,18.889467 C174.029538,18.1094698 173.431937,17.1917257 173.008953,16.1362071 C172.58597,15.0806887 172.37448,13.9398144 172.37448,12.7135503 C172.37448,11.4872861 172.58597,10.3464119 173.008953,9.29089332 C173.431937,8.2353748 174.029538,7.31957099 174.801774,6.54345442 C175.57401,5.76733786 176.503395,5.15809549 177.589958,4.71570905 C178.676521,4.27332261 179.879483,4.0521327 181.198882,4.0521327 C182.51828,4.0521327 183.719302,4.27526286 184.801986,4.7215299 C185.884668,5.16779691 186.810173,5.77897955 187.578528,6.55509611 C188.346884,7.33121267 188.942545,8.24701648 189.365528,9.30253503 C189.788512,10.3580536 190,11.4950473 190,12.7135503 Z M185.971974,12.7135503 C185.971974,11.8753444 185.86332,11.1205823 185.646007,10.4492415 C185.428695,9.77790068 185.116313,9.20940382 184.708851,8.74373389 C184.301391,8.27806394 183.802743,7.92105568 183.212894,7.67269838 C182.623046,7.42434108 181.951716,7.30016429 181.198882,7.30016429 C180.438288,7.30016429 179.761136,7.42434108 179.167407,7.67269838 C178.573678,7.92105568 178.073091,8.27806394 177.665629,8.74373389 C177.258168,9.20940382 176.945786,9.77790068 176.728473,10.4492415 C176.51116,11.1205823 176.402506,11.8753444 176.402506,12.7135503 C176.402506,13.5595173 176.51116,14.3181599 176.728473,14.9895007 C176.945786,15.6608415 177.258168,16.2293384 177.665629,16.6950084 C178.073091,17.1606783 178.573678,17.5157463 179.167407,17.760223 C179.761136,18.0046997 180.438288,18.1269362 181.198882,18.1269362 C181.951716,18.1269362 182.623046,18.0046997 183.212894,17.760223 C183.802743,17.5157463 184.301391,17.1606783 184.708851,16.6950084 C185.116313,16.2293384 185.428695,15.6608415 185.646007,14.9895007 C185.86332,14.3181599 185.971974,13.5595173 185.971974,12.7135503 Z" id="horse21.pro" fill="#4F5A7C"></path>
            </g>
        </g>
    </g>
</svg>